<mxfile host="app.diagrams.net" modified="2024-04-11T09:04:20.939Z" agent="Mozilla/5.0 (X11; Linux x86_64) AppleWebKit/537.36 (KHTML, like Gecko) Chrome/122.0.0.0 Safari/537.36" etag="kB6W6TW80qxDfn55dO9_" version="24.2.3" type="github">
  <diagram name="第 1 页" id="8LAWrL66cn0wCglEOjIA">
    <mxGraphModel dx="1562" dy="795" grid="1" gridSize="10" guides="1" tooltips="1" connect="1" arrows="1" fold="1" page="1" pageScale="1" pageWidth="827" pageHeight="1169" math="0" shadow="0">
      <root>
        <mxCell id="0" />
        <mxCell id="1" parent="0" />
        <mxCell id="G4KPvW6Z1PU45tLtSCDD-3" value="" style="edgeStyle=orthogonalEdgeStyle;rounded=0;hachureGap=4;orthogonalLoop=1;jettySize=auto;html=1;fontFamily=Architects Daughter;fontSource=https%3A%2F%2Ffonts.googleapis.com%2Fcss%3Ffamily%3DArchitects%2BDaughter;fillColor=#dae8fc;strokeColor=#6c8ebf;" edge="1" parent="1" source="G4KPvW6Z1PU45tLtSCDD-1" target="G4KPvW6Z1PU45tLtSCDD-2">
          <mxGeometry relative="1" as="geometry" />
        </mxCell>
        <mxCell id="G4KPvW6Z1PU45tLtSCDD-1" value="开发环境" style="ellipse;whiteSpace=wrap;html=1;aspect=fixed;hachureGap=4;fontFamily=Architects Daughter;fontSource=https%3A%2F%2Ffonts.googleapis.com%2Fcss%3Ffamily%3DArchitects%2BDaughter;strokeColor=#6c8ebf;fillColor=#dae8fc;shadow=0;fillStyle=auto;" vertex="1" parent="1">
          <mxGeometry x="170" y="320" width="80" height="80" as="geometry" />
        </mxCell>
        <mxCell id="G4KPvW6Z1PU45tLtSCDD-5" value="" style="edgeStyle=orthogonalEdgeStyle;rounded=0;hachureGap=4;orthogonalLoop=1;jettySize=auto;html=1;fontFamily=Architects Daughter;fontSource=https%3A%2F%2Ffonts.googleapis.com%2Fcss%3Ffamily%3DArchitects%2BDaughter;fillColor=#dae8fc;strokeColor=#6c8ebf;" edge="1" parent="1" source="G4KPvW6Z1PU45tLtSCDD-2" target="G4KPvW6Z1PU45tLtSCDD-4">
          <mxGeometry relative="1" as="geometry" />
        </mxCell>
        <mxCell id="G4KPvW6Z1PU45tLtSCDD-2" value="测试环境" style="ellipse;whiteSpace=wrap;html=1;fontFamily=Architects Daughter;fillColor=#dae8fc;strokeColor=#6c8ebf;hachureGap=4;fontSource=https%3A%2F%2Ffonts.googleapis.com%2Fcss%3Ffamily%3DArchitects%2BDaughter;shadow=0;fillStyle=auto;" vertex="1" parent="1">
          <mxGeometry x="330" y="320" width="80" height="80" as="geometry" />
        </mxCell>
        <mxCell id="G4KPvW6Z1PU45tLtSCDD-4" value="验收环境" style="ellipse;whiteSpace=wrap;html=1;fontFamily=Architects Daughter;fillColor=#dae8fc;strokeColor=#6c8ebf;hachureGap=4;fontSource=https%3A%2F%2Ffonts.googleapis.com%2Fcss%3Ffamily%3DArchitects%2BDaughter;shadow=0;fillStyle=auto;" vertex="1" parent="1">
          <mxGeometry x="490" y="320" width="80" height="80" as="geometry" />
        </mxCell>
      </root>
    </mxGraphModel>
  </diagram>
</mxfile>
